<?xml version="1.0" encoding="utf-8"?>
<!-- Generator: Adobe Illustrator 20.1.0, SVG Export Plug-In . SVG Version: 6.00 Build 0)  -->
<svg version="1.1" id="svg2608" xmlns:svg="http://www.w3.org/2000/svg"
	 xmlns="http://www.w3.org/2000/svg" xmlns:xlink="http://www.w3.org/1999/xlink" x="0px" y="0px" viewBox="0 0 400 320"
	 style="enable-background:new 0 0 400 320;" xml:space="preserve">
<style type="text/css">
	.st0{fill:#42474A;}
	.st1{fill:#C0C3C4;}
	.st2{fill:#BFC3C6;}
	.st3{fill:url(#SVGID_1_);}
	.st4{fill:none;stroke:#343535;stroke-miterlimit:10;}
	.st5{fill:url(#SVGID_2_);}
	.st6{fill:url(#SVGID_3_);}
	.st7{fill:#343535;}
	.st8{fill:#37383A;}
	.st9{fill:url(#SVGID_4_);}
</style>
<g id="Layer_14" transform="translate(50,44.117647)">
	<rect id="rect2613" x="-7.1" y="230.7" class="st0" width="295.8" height="23"/>
</g>
<g id="Layer_2" transform="translate(50,44.117647)">
	<path class="st1" d="M320.8-20H-19.3c-9.6,0-17.3,7.8-17.3,17.3v217.2c0,9.6,7.8,17.3,17.3,17.3h340.1c9.6,0,17.3-7.8,17.3-17.3
		V-2.7C338.1-12.3,330.3-20,320.8-20z M169.3,71.1c0.8,2.6-1,5.3-3.4,6.1c1.3,3.7-3.6,8.8-7.4,6c-1.9-1.4-3.7-2.8-5.6-4.1
		c-1.3,0-2.7-0.5-3.7-1.7c1.5,2.8,2.9,5.6,4.2,8.5c1.3,2.9-0.2,6-2.6,7.2c1.8,2.6,3.7,5.2,5.6,7.8c2.5,3.5-0.4,6.8-3.7,7.2
		c0.1,0.1,0.2,0.2,0.2,0.3c3.4,5-3.8,9.6-7.9,6.1c-5.2-4.5-10.2-9.3-15-14.2c-0.5,0.7-1.2,1.4-2,1.8c0.6,3.7-4,7.8-7.5,5.2
		c-4.8-3.7-9.3-7.8-13.6-12.1c2.1,4.1-2.8,9.5-6.9,6.6c-1.7-1.2-3.3-2.4-4.9-3.6c1.6,4.6-4.5,9.7-8.1,5.4c-1.3-1.6-2.6-3.1-4-4.7
		c1.3,2,2.6,4.1,3.8,6.1c3,4.9-3.9,10.1-7.9,6.1c-2.6-2.7-5.2-5.5-7.7-8.4c1.4,4.6-4.4,8.2-8.3,4.9c-2-1.8-4-3.6-6-5.4
		c-0.3,3.9-5.5,7-8.5,3.4c-1.3-1.6-2.6-3.2-3.9-4.7c0.7,4.2-5,7.5-8.6,4.2c-1.4-1.3-2.8-2.6-4.1-4c-1.8,1.5-4.6,1.9-6.9,0
		c-0.4-0.3-0.8-0.6-1.1-1c0.8,1.7,1.4,3.4,2,5.1c1.5,4.6-4,7.7-7.6,5.5c-1.1,1.7-3.3,2.6-5.5,2.2c-2.5-0.5-4.5-1.6-6.4-3.1
		c-1.3,5.1-9.6,4.7-9.8-1.3C-3.9,98.6-3.8,87.8-1,78c-0.2-2.1-0.5-4.3-0.8-6.4C-3,60.2-4.5,48.1-0.3,37.1C0,36.3,0.4,35.7,1,35.1
		c-0.4-4.3,5.4-6.9,8.6-3.8c1.5,1.5,2.8,3.2,3.9,5.2c0.1-1.7,0.3-3.4,0.7-5c0.7-2.7,3.6-4.1,6.2-3.5c1.9,0.5,3.4,1.4,4.6,2.6
		c0.8-1.1,2.1-1.6,3.5-1.6c2.6-5,6.7-8.7,13.4-9.3c2.5-2.6,5.7-4.6,9.8-5.7c3.4-0.9,7.4-1,11.3-0.5c4.1-0.8,8.6-0.7,12.1-0.1
		c9.3,1.4,18.2,5.8,27.5,6.5c1.1,0.1,2.1,0.5,2.8,1c1.8-1.1,4.3-1.2,6.2,0.4c3.1,2.6,6.1,5.3,9,8c1-2.9,4-5.1,7-2.8
		c3.9,3,7.3,6.3,10.5,9.9c0.3,0.1,0.6,0.2,0.9,0.2c-1.9-2.4-3.5-4.9-4.8-7.8c-1.2-2.6-0.5-6.8,3-7.3c7.6-1.2,13.9,3.7,19,8.9
		c5.3,5.4,10,11.8,13.7,18.4c1.5,2.8,0,6.8-3.1,7.4c-0.5,1-1.4,1.8-2.5,2.4C166.2,62.7,168,66.8,169.3,71.1z"/>
</g>
<g id="Layer_3" transform="translate(50,44.117647)">
	<path class="st0" d="M328.7,211.2V1.3c0-7.4-6-13.3-13.3-13.3H-16.7C-24-12-29.9-6-30,1.3v209.9c0,7.4,6,13.3,13.3,13.3h332.2
		C322.9,224.5,328.8,218.5,328.7,211.2L328.7,211.2z M183.5,101.2c-8-5.7-15.7-11.9-23.3-18.2c-7.9-3.4-15.8-7-23.6-10.6
		c1.4,1.9,2.8,3.9,4.2,5.8c5.5,6,10.2,12.6,14,19.6c3.1,5.9-4.8,10-8.6,5c-4.6-6-8.8-12.2-13.1-18.3c-6.1-6.7-13.1-12.7-20.6-18.1
		c8.6,8.9,17.3,17.7,23.8,28.3c3,4.8-4.2,10.4-7.9,6.1c-6.2-7.3-12.3-14.8-18.5-22.1c2.4,3.4,4.7,6.9,6.9,10.5
		c2.6,4.2-1.9,8.1-5.6,7.3c1.7,4.6-4.7,9.4-8.2,5.3c-4.8-5.7-9.5-11.5-14.2-17.3c2.5,4,4.9,8.1,7.1,12.3c2.5,4.8-4.2,10.7-7.9,6.1
		c-0.1-0.2-0.3-0.3-0.4-0.5c-1.8,1.5-4.8,1.8-6.8,0.3c0.9,4.5-4.7,8.8-8.3,4.8c-0.8-0.9-1.5-1.8-2.3-2.7c0.1,4.4-6.8,6-9.5,2.2
		c-0.1-0.1-0.1-0.2-0.2-0.3c-1.7,1.2-4.1,1.3-6-0.7c-2.7-2.9-5.3-6-7.7-9.2c0.2,0.6,0.4,1.2,0.6,1.8c1.8,5.8-6,8.1-9.1,3.9
		c-0.9-1.2-1.7-2.4-2.6-3.6c-1.1,0.4-2.3,0.4-3.4-0.3c-0.8,2.6-3.5,4.5-6.1,3.7c0.1,1.8,0,3.6-0.3,5.5c-0.3,2-2.8,3.9-4.8,3.7
		c-4.5-0.4-7.9-2.9-10.5-6.3c0,0.4,0,0.9,0,1.3c-0.3,5.7-8,6.7-9.8,1.3c-4.1-12.2-6.1-25-6.2-37.8c0-0.1,0-0.2,0-0.3
		c-0.8-3.5-1.1-7.1-0.3-11c0.2-1.1,0.9-2,1.7-2.6c-0.9-0.6-1.5-1.5-1.7-2.7C-9.4,31.2,9,13,31,15.4c1.4,0.2,2.5,0.8,3.3,1.7
		c6-1.6,12.1-2.5,18.1-2.9c7.3-2.2,14.8-2.7,22.5-0.1c16.6-3.5,33.4,2.2,49.1,9.9c0-3,3.2-5.9,6.4-4.9c4.9,1.5,9.4,3.7,13.6,6.3
		c1.1-0.7,2.5-1,3.9-0.8c8.6,1.7,15.9,8,22,13.9c6.5,6.4,12.3,13.6,17,21.4c1.2,2,0.7,4.3-0.7,5.8c-1.1,2.5-4.4,4.2-7.2,2.5
		c-2.7-1.6-5.4-3.4-8-5.2c0.6,1,0.7,2,0.5,3c7.4,8.7,14,17.8,18.9,28.3C192.2,98.4,188,104.4,183.5,101.2z"/>
</g>
<g id="Layer_3_copy" transform="translate(50,44.117647)">
	<path class="st2" d="M311.8-9.4H-13c-7.2,0-13,5.8-13,13v205.3c0,7.2,5.8,13,13,13h324.8c7.2,0,13-5.8,13-13V3.6
		C324.8-3.6,319-9.4,311.8-9.4z M173,110.4c-14.9,0.2-30.6,4.6-43.9-4.8c-2.5-1.8-5-4.3-8.1-5.1c-3.4-0.8-6.8,0.7-9.8,1.9
		c-3.3,1.2-6.3,2.3-9.8,2.7c-1.5,0.2-3,0.3-4.6,0.4c0.1,0.5,0,0.9,0,1.4c0.9,1,1.8,1.9,2.8,2.8c3.4,3.2,0.5,8.2-3.5,8.5
		c-4.7,0.4-9.3,1.2-14,1.7c-7.4,4.6-18,2.7-26,0.6c-4.6-1.2-9-2.7-13.5-4.1c-9.9,3.3-20,7.4-27.3-3.7c-0.1-0.1-0.1-0.2-0.2-0.4
		c-5.3,1.8-11.3,1.7-15.4-2.2c-5.2-4.8-6-12.8-6-19.5c-0.1-11.9,2.2-23.7,2-35.6c-0.1-9.1-2.3-18.8,0.7-27.6
		c2.6-7.7,9.6-11.6,17.2-13.1c7.2-1.4,14.7-1.2,21.9-2.6C44.6,10.1,54,7.4,63,11.6c1,0.5,1.7,1.4,2.1,2.4c0.3-0.1,0.5-0.2,0.8-0.2
		c13.4-3.5,29.8-5.7,42.1,2.3c0.2,0.1,0.3,0.2,0.4,0.3c8.9-2.3,16.8,1.2,23.5,7c3.7-1.4,8.2-1.8,11.4-1.6c11,0.8,18.3,8.3,18.3,19.4
		c7.4,3.4,12.9,11.8,13.7,19.4c0.3,2.8-0.1,5.4-1.1,7.9c2.2,3.9,3.9,7.9,5.1,11.6c2.3,6.9,2.9,16.6-2.7,21.9
		C179,104.8,177.8,110.3,173,110.4z"/>
</g>
<g id="Layer_3_copy_2" transform="translate(50,44.117647)">
	<path class="st0" d="M-9.3-6.9c-6.9,0-12.6,5.7-12.6,12.7v200.7c0,7,5.6,12.7,12.6,12.7h334.6V-6.9H-9.3z M163.8,106.8
		c0,0.1,0,0.2,0.1,0.3c0.8,3.9-3.5,8.4-7.3,5.6c-1.7-1.2-3.3-2.4-5-3.5c-0.3,3.3-4.3,6.3-7.5,4c-1.7-1.2-3.4-2.5-5.2-3.8
		c-3.7,1.5-7.1,4-11,4.8c-3.5,0.7-6.5-0.5-8.7-2.9c-2.3,0.1-4.6,0-6.8,0c-1.4,0-2.7-0.1-4.1-0.1c-2.5,3.6-7.9,4.6-12.1,3.9
		c-0.3,0-0.6-0.1-0.9-0.2c1.4,2.1,2.8,4.2,4.1,6.4c3.1,4.9-3.9,9.9-7.9,6.1c-2.3-2.2-4.5-4.6-6.5-7.1c0,2.9-2.3,4.8-4.9,4.9
		c0.3,0.4,0.5,0.8,0.8,1.2c3.2,4.8-4,10.1-7.9,6.1c-4.2-4.4-8.5-8.8-12.6-13.3c-1.9,1.3-4.8,1.4-6.8-0.2c-1.6,2.5-5.2,3.7-7.7,1
		c-1.6-1.8-3.2-3.5-4.8-5.4c-0.1,3.3-4.5,5.6-7.7,4.1c-0.6-0.3-1.3-0.6-1.9-0.9c-0.5,2.7-3.8,4.4-6.4,3.9c-9.9-1.8-20-5.7-25.7-14.5
		C-6.3,98.4-6.2,87.3-5,77.4c0-0.2,0.1-0.4,0.1-0.6c-5.8-9-3.6-18.8,0-28.3c0-1-0.1-2-0.1-3.1c0-0.8,0.1-1.5,0.4-2
		c-0.4-0.5-0.6-1-0.7-1.6c-0.9-5.8,0.8-11.4,6-12.4c0.1-0.1,0.1-0.1,0.2-0.2c-0.5-1.8-0.1-3.8,1.1-5.3c3.5-4.1,8.4-5.6,13.5-5.6
		c3.8-3.8,10.8-5.5,15.8-5.4c0.3,0,0.6,0,0.8,0.1c0.2-0.1,0.4-0.2,0.6-0.4c4.8-2.6,9.5-3.9,14.9-2.9c5.5,1,10.1,4.5,15.9,4.1
		c3.6-0.3,7.1-1.7,10.7-0.8c1.1,0.3,2,0.7,2.9,1.2c15.5-1.7,30.5,3.2,45.8,4.9c13.4,1.5,27.4,2.9,35.8,14.7
		c3.2,4.4,5.3,9.8,4.7,15.3c-0.3,2.7-1.2,5.1-2.7,7.3c-0.9,1.2-1.8,2.3-3.1,3.1c-0.8,0.5-2.7,0.7-3.2,1.4c-1,1.3,0.2,3.7,1.4,5.6
		c3.5,2.8,7,5.7,10.3,8.8c2.9,2.7,1.1,6.9-1.8,8.2c2.4,5.5,4.4,11.1,5.6,17C170.6,104.5,166.9,107.4,163.8,106.8z"/>
</g>
<g id="Layer_3_copy_3" transform="translate(50,44.117647)">
	<path class="st1" d="M48,136.6c-0.7-0.2-1.5-0.4-2.2-0.6c1.3,1.5,2.7,3,4.1,4.5c-0.3-1.2-0.6-2.4-0.7-3.7
		C48.8,136.7,48.4,136.6,48,136.6z"/>
	<path class="st1" d="M57.3,127.9c0.1,0.1,0.1,0.2,0.2,0.3c0.8,0.1,1.7,0.2,2.5,0.2c-1.7-1.5-3.5-2.9-5.3-4.1
		C55.6,125.4,56.5,126.6,57.3,127.9z"/>
	<path class="st1" d="M195.8,121.4c1,1.4,0.9,3.1,0.2,4.5c1.7-0.3,3.4-0.7,5.1-1c-1.9-1.2-3.7-2.4-5.4-3.7
		C195.7,121.2,195.8,121.3,195.8,121.4z"/>
	<path class="st1" d="M160.6,123.8c0.3,0.4,0.7,0.7,1,1.1c3,2.9,7.8,3.7,12.7,3.7c-2.7-3.2-5.5-6.3-8.3-9.3
		C165.7,121.9,163.2,124,160.6,123.8z"/>
	<path class="st1" d="M244.2-4.7H-6.4c-6.9,0-12.5,5.6-12.5,12.5v197c0,6.9,5.6,12.5,12.5,12.5h250.5c6.9,0,12.5-5.6,12.5-12.5
		l0.1-197C256.7,0.9,251.1-4.7,244.2-4.7z M236.3,129.2c-0.8,3.6-5.9,5-8.4,2.2c-0.3-0.3-0.5-0.7-0.8-1c-2.2,0.2-4.4-0.4-6.3-2.1
		c-0.1-0.1-0.1-0.1-0.2-0.2c-2.7,3.5-7.7,4.2-11.7,5.1c-5.5,1.4-11.1,2.5-16.8,3.3c-1.6,0.2-3.4,0.5-5.2,0.8
		c-1.1,0.6-2.5,0.8-3.8,0.5c-8.6,1-17.9,1.2-25-2.9c-1-0.6-2-1.3-2.9-2.1c-0.3,0.3-0.7,0.6-1.1,0.8c1.7,2.7,3.4,5.4,5,8.2
		c2.8,4.8-4.3,10.6-7.9,6.1c-3.4-4.3-6.7-8.7-10-13.1c1.6,2.7,3.3,5.3,4.9,8c1.7,2.8,0.4,5.4-1.7,6.6c0.1,0.1,0.2,0.3,0.2,0.4
		c2.5,4.6-2.4,8.6-6.3,7c1.1,2.5,2.2,5,3.3,7.5c2,4.8-3.8,10.7-7.9,6.1c-1.6-1.8-3.1-3.6-4.5-5.5c-0.8,0.7-1.8,1.2-2.9,1.4
		c1.8,4.7-4.4,10.1-8.1,5.6c-0.1-0.1-0.1-0.1-0.2-0.2c2.1,4.1,4.2,8.3,6,12.7c2.5,5.9-4.8,10.3-8.6,5c-2.6-3.6-5.1-7.4-7.5-11.2
		c-1.3,0.1-2.6-0.3-3.7-1.3c-0.4-0.4-0.8-0.7-1.1-1.1c-1.4,2-3.9,3.1-6.3,1.4c-7.9-5.6-15-12.1-22.1-18.7c-3.5-3.3-7-6.5-10.5-9.7
		c1.9,3.2,4,6.3,5.5,9.5c1.9,4-2.3,10-6.8,6.8c-14.2-10.1-25.7-23.3-36.5-36.8c-2-2.4-1.6-5.2,0-6.8c-0.8-0.2-1.6-0.5-2.2-1
		c-0.1,0-0.2-0.1-0.4-0.1c-2,0.7-4.3,0.2-5.7-2.1c-1.3-2.2-2.5-4.4-3.5-6.7c-15.4,4-18.4-20.4-19.5-30.2c-1-9.1-1.1-18.3-0.6-27.4
		c0.4-6.6,0.8-13.8,3.1-20c0.8-2.2,2.5-3.2,4.4-3.4c0.1-0.3,0.2-0.5,0.3-0.8c2.7-6,8.3-9.1,14.4-9.6c0.7-0.5,1.7-0.8,2.8-0.9
		c9.1-0.2,17.6-2.8,26.5-4.3c8.9-1.5,17.8-1.2,26.8-1.1c3.1,0,6.3,0.1,9.4,0.3c6-1.4,12.2-2.3,18.4-2.5c17-0.6,32.6,5,48.4,9.9
		c0.3,0.1,0.5,0.1,0.8,0.2c1,0,2.1,0,3.1,0c10.8,0,22.2,0.3,32.3,3.3c7.2-1.9,14.2-0.7,20.2,4.3c2.9,2.4,5.3,5.3,7.6,8.3
		c0.8-3.9,2.5-7.2,6.4-8.5c10.8-3.6,14.6,10.5,15.2,18c1,11.5-0.3,22.9,0.9,34.4C237.1,97.4,239.8,113.4,236.3,129.2z"/>
</g>
<g id="Layer_7" transform="translate(50,44.117647)">
	<linearGradient id="SVGID_1_" gradientUnits="userSpaceOnUse" x1="-14" y1="108.25" x2="246.5" y2="108.25">
		<stop  offset="0" style="stop-color:#E7EDF3"/>
		<stop  offset="1" style="stop-color:#95999D"/>
	</linearGradient>
	<path class="st3" d="M238.5,2.6H-6c-4.4,0-8,3.6-8,8v195.3c0,4.4,3.6,8,8,8h244.4c4.4,0,8-3.6,8-8h0.1V10.6
		C246.5,6.2,242.9,2.6,238.5,2.6z M221,124.9c-0.3-3.6-0.6-7.2-0.8-10.8c-0.8-7.2-2-14.2-3.5-21.3c-0.1,9-0.1,18.1,0.3,27.1
		c0.2,5.6-8.9,6.9-9.8,1.3c-0.8-5-2-9.9-3.3-14.7c-5,1.4-11.7,0.5-15.5,0.1c-13.2-1.6-27.1-2.5-42-1.4c-8.1,0.6-16.1,4-24.2,2.8
		c-3.7-0.6-7.4-1.6-11.2-0.8c-3.6,0.8-6.9,2.5-10.5,3.4c-7.4,1.9-14.8,2.3-22.3,1.2c-0.9-0.1-1.9-0.3-2.8-0.5
		c0.2,0.5,0.3,1.1,0.4,1.6c0.7,3.8-2.2,7-6.2,6.2c-7.1-1.5-15.2-2.9-20.9-7.8c-1-0.9-2-1.9-2.9-3.1c-0.5,0.2-1,0.3-1.5,0.4
		c-3.9,0.8-8.1,1.2-11.9-0.1c0,0.1,0,0.1,0,0.2c0.7,2.8-0.9,5.2-3.5,6.2c-8,2.8-15.4-3.4-23.2-3.7c-3.9-0.1-8.3,0.6-11.7-1.9
		c-2.6-1.9-3.6-5.1-4.1-8.1c-1.3-8.1,0.1-16.4,0.4-24.5C-9.2,64-8.8,51.7-8,39.4c0.1-1,0.4-1.8,0.8-2.5c0.3-6.1,1.2-12.6,4.8-17.2
		c4.2-5.5,12.8-8.2,20.1-8.5c3-0.7,5.8-1.8,9.2-0.9c0.5,0.1,0.9,0.3,1.3,0.6c0.3-0.1,0.6-0.1,0.8-0.2c3.7-0.5,7.3-0.1,10.8,0.9
		c0.8-0.7,1.8-1.1,3.2-1.1c10.9,0.1,21.3,2.3,31.6,5.3c0.1,0,0.2,0,0.4,0c11.4-0.1,22.3,2.9,33.2,5.8c2,0.5,3.9,1.1,5.8,1.7
		c5,0.4,10.1,1,15.1,1.7c10.1,1.4,20.1,3.3,30.1,5.3c10,2.1,19.9,4.6,29.5,7.8c0.8-0.4,1.6-0.6,2.5-0.6c0.7-0.4,1.6-0.7,2.6-0.7
		c3.2,0,4.8,2.4,4.8,4.9c3.5,1.4,7,3,10.2,4.8c2.2-0.8,5.2-0.1,6.5,2c1.2,1.9,2.1,3.9,2.8,6c-0.3-6.1-0.8-12.1-1.4-18.2
		c-0.7-6.4,9.3-6.3,10,0c2.7,25.7,1.9,51.6,3.4,77.3c0.4,3.8,0.7,7.6,0.8,11.4C231.2,131.4,221.6,131.2,221,124.9z"/>
</g>
<g id="Layer_8" transform="translate(50,44.117647)">
	<path id="path2639" class="st4" d="M242.6,108c0,43.8-2.9,75.8-2.9,75.8c-2,14.9-9.5,20.5-35.2,22.6c-41.2,3.3-92.3,2.3-92.3,2.3
		s-45.2,1.1-86.4-2.2c-25.7-2.1-33.2-7.6-35.2-22.6c0,0-1.6-31.4-1.3-75.4c0.2-44,3.3-75.9,3.3-75.9c2-14.9,9.5-20.5,35.2-22.6
		c41.2-3.3,86.4-2.2,86.4-2.2s51.1-1,92.3,2.3c25.7,2.1,33.2,7.6,35.2,22.6C241.7,32.6,242.6,64.2,242.6,108z"/>
</g>
<linearGradient id="SVGID_2_" gradientUnits="userSpaceOnUse" x1="438.0883" y1="574.2816" x2="453.3563" y2="574.2816" gradientTransform="matrix(6.123234e-17 1 1 -6.123234e-17 -232.2316 -367.7134)">
	<stop  offset="0" style="stop-color:#95999D"/>
	<stop  offset="0.4951" style="stop-color:#CCCCCC"/>
	<stop  offset="1" style="stop-color:#95999D"/>
</linearGradient>
<path class="st5" d="M330.2,82.6V74c0-2.3,1.9-4.2,4.2-4.2h15.3c2.3,0,4.2,1.9,4.2,4.2v8.6c0,2.3-1.9,4.2-4.2,4.2h-15.3
	C332.1,86.8,330.2,84.9,330.2,82.6z"/>
<linearGradient id="SVGID_3_" gradientUnits="userSpaceOnUse" x1="468.4262" y1="574.4816" x2="483.6942" y2="574.4816" gradientTransform="matrix(6.123234e-17 1 1 -6.123234e-17 -232.2316 -367.7134)">
	<stop  offset="0" style="stop-color:#95999D"/>
	<stop  offset="0.4951" style="stop-color:#CCCCCC"/>
	<stop  offset="1" style="stop-color:#95999D"/>
</linearGradient>
<path class="st6" d="M330.4,112.9v-8.6c0-2.3,1.9-4.2,4.2-4.2h15.3c2.3,0,4.2,1.9,4.2,4.2v8.6c0,2.3-1.9,4.2-4.2,4.2h-15.3
	C332.2,117.1,330.4,115.2,330.4,112.9z"/>
<g>
	<rect x="316.1" y="197.5" class="st7" width="52.3" height="1.3"/>
</g>
<g>
	<path class="st8" d="M365.5,256.5h-46.9c-2.3,0-4.1-1.8-4.1-4.1v-78.9c0-2.3,1.8-4.1,4.1-4.1h46.9c2.3,0,4.1,1.8,4.1,4.1v78.9
		C369.6,254.6,367.8,256.5,365.5,256.5z"/>
	<g>
		<rect x="315.9" y="171.9" class="st7" width="52.3" height="1.3"/>
	</g>
	<g>
		<rect x="315.9" y="174.2" class="st7" width="52.3" height="1.3"/>
	</g>
	<g>
		<rect x="315.9" y="176.9" class="st7" width="52.3" height="1.3"/>
	</g>
	<g>
		<rect x="315.9" y="179.4" class="st7" width="52.3" height="1.3"/>
	</g>
	<g>
		<rect x="315.9" y="182.2" class="st7" width="52.3" height="1.3"/>
	</g>
	<g>
		<rect x="315.9" y="184.9" class="st7" width="52.3" height="1.3"/>
	</g>
	<g>
		<rect x="315.9" y="187.7" class="st7" width="52.3" height="1.3"/>
	</g>
	<g>
		<rect x="315.9" y="190.2" class="st7" width="52.3" height="1.3"/>
	</g>
	<g>
		<rect x="316" y="192.8" class="st7" width="52.3" height="1.3"/>
	</g>
	<g>
		<rect x="316" y="195.3" class="st7" width="52.3" height="1.3"/>
	</g>
	<g>
		<rect x="316" y="197.6" class="st7" width="52.3" height="1.3"/>
	</g>
	<g>
		<rect x="316" y="200.1" class="st7" width="52.3" height="1.3"/>
	</g>
	<g>
		<rect x="316" y="202.3" class="st7" width="52.3" height="1.3"/>
	</g>
	<g>
		<rect x="316" y="204.8" class="st7" width="52.3" height="1.3"/>
	</g>
	<g>
		<rect x="316" y="207.2" class="st7" width="52.3" height="1.3"/>
	</g>
	<g>
		<rect x="316" y="209.7" class="st7" width="52.3" height="1.3"/>
	</g>
	<g>
		<rect x="316" y="212" class="st7" width="52.3" height="1.3"/>
	</g>
	<g>
		<rect x="316" y="214.4" class="st7" width="52.3" height="1.3"/>
	</g>
	<g>
		<rect x="316" y="227" class="st7" width="52.3" height="1.3"/>
	</g>
	<g>
		<rect x="316" y="224.6" class="st7" width="52.3" height="1.3"/>
	</g>
	<g>
		<rect x="316" y="222.1" class="st7" width="52.3" height="1.3"/>
	</g>
	<g>
		<rect x="316" y="219.5" class="st7" width="52.3" height="1.3"/>
	</g>
	<g>
		<rect x="316" y="216.9" class="st7" width="52.3" height="1.3"/>
	</g>
	<g>
		<rect x="316" y="229.6" class="st7" width="52.3" height="1.3"/>
	</g>
	<g>
		<rect x="316" y="232.2" class="st7" width="52.3" height="1.3"/>
	</g>
	<g>
		<rect x="316" y="234.8" class="st7" width="52.3" height="1.3"/>
	</g>
	<g>
		<rect x="316" y="237.6" class="st7" width="52.3" height="1.3"/>
	</g>
	<g>
		<rect x="316" y="240.2" class="st7" width="52.3" height="1.3"/>
	</g>
	<g>
		<rect x="316" y="242.9" class="st7" width="52.3" height="1.3"/>
	</g>
	<g>
		<rect x="315.9" y="245.5" class="st7" width="52.3" height="1.3"/>
	</g>
	<g>
		<rect x="315.9" y="248.2" class="st7" width="52.3" height="1.3"/>
	</g>
	<g>
		<rect x="315.9" y="250.6" class="st7" width="52.3" height="1.3"/>
	</g>
	<g>
		<rect x="316" y="253.1" class="st7" width="52.3" height="1.3"/>
	</g>
</g>
<linearGradient id="SVGID_4_" gradientUnits="userSpaceOnUse" x1="498.764" y1="574.4816" x2="514.032" y2="574.4816" gradientTransform="matrix(6.123234e-17 1 1 -6.123234e-17 -232.2316 -367.7134)">
	<stop  offset="0" style="stop-color:#95999D"/>
	<stop  offset="0.4951" style="stop-color:#CCCCCC"/>
	<stop  offset="1" style="stop-color:#95999D"/>
</linearGradient>
<path class="st9" d="M330.4,143.2v-8.6c0-2.3,1.9-4.2,4.2-4.2h15.3c2.3,0,4.2,1.9,4.2,4.2v8.6c0,2.3-1.9,4.2-4.2,4.2h-15.3
	C332.2,147.4,330.4,145.6,330.4,143.2z"/>
</svg>
