<?xml version="1.0" encoding="utf-8"?>
<!-- Generator: Adobe Illustrator 20.1.0, SVG Export Plug-In . SVG Version: 6.00 Build 0)  -->
<svg version="1.1" id="svg2608" xmlns:svg="http://www.w3.org/2000/svg"
	 xmlns="http://www.w3.org/2000/svg" xmlns:xlink="http://www.w3.org/1999/xlink" x="0px" y="0px" viewBox="0 0 400 320"
	 style="enable-background:new 0 0 400 320;" xml:space="preserve">
<style type="text/css">
	.st0{fill:#42474A;}
	.st1{fill:#C0C3C4;}
	.st2{fill:#BFC3C6;}
	.st3{fill:url(#path2636_1_);}
	.st4{fill:#343535;}
	.st5{fill:url(#path2698_1_);}
	.st6{fill:url(#SVGID_1_);}
	.st7{fill:url(#SVGID_2_);}
	.st8{fill:#37383A;}
	.st9{fill:url(#SVGID_3_);}
</style>
<g id="Layer_14" transform="translate(50,44.117647)">
	<rect id="rect2613" x="-7.1" y="230.7" class="st0" width="295.8" height="23"/>
</g>
<g id="Layer_2" transform="translate(50,44.117647)">
	<path id="path2616" class="st1" d="M338.1,214.5c0,9.5-7.7,17.3-17.3,17.3H-19.3c-9.5,0-17.3-7.7-17.3-17.3V-2.7
		c0-9.5,7.7-17.3,17.3-17.3h340.1c9.5,0,17.3,7.7,17.3,17.3V214.5z"/>
</g>
<g id="Layer_3" transform="translate(50,44.117647)">
	<path id="path2619" class="st0" d="M328.8,211.2c0,7.3-5.9,13.3-13.3,13.3H-16.7c-7.3,0-13.3-5.9-13.3-13.3V1.3
		C-29.9-6-24-12-16.7-12h332.1c7.3,0,13.3,5.9,13.3,13.3V211.2z"/>
</g>
<g id="Layer_3_copy" transform="translate(50,44.117647)">
	<path id="path2622" class="st2" d="M324.8,208.9c0,7.2-5.8,13-13,13H-13c-7.2,0-13-5.8-13-13V3.6c0-7.2,5.8-13,13-13h324.8
		c7.2,0,13,5.8,13,13V208.9L324.8,208.9z"/>
</g>
<g id="Layer_3_copy_2" transform="translate(50,44.117647)">
	<path id="path2625" class="st0" d="M325.4,219.2H-9.3c-7,0-12.6-5.7-12.6-12.7V5.8c0-7,5.7-12.7,12.6-12.7h334.6V219.2z"/>
</g>
<g id="Layer_3_copy_3" transform="translate(50,44.117647)">
	<path id="path2628" class="st1" d="M256.6,204.8c0,6.9-5.6,12.5-12.5,12.5H-6.4c-6.9,0-12.5-5.6-12.5-12.5V7.8
		c0-6.9,5.6-12.5,12.5-12.5h250.6c6.9,0,12.5,5.6,12.5,12.5L256.6,204.8L256.6,204.8z"/>
</g>
<g id="Layer_7" transform="translate(50,44.117647)">
	
		<linearGradient id="path2636_1_" gradientUnits="userSpaceOnUse" x1="-49.9656" y1="473.7689" x2="146.0344" y2="473.7689" gradientTransform="matrix(1.3285 0 0 1.3285 52.378 -521.1581)">
		<stop  offset="0" style="stop-color:#E7EDF3"/>
		<stop  offset="1" style="stop-color:#95999D"/>
	</linearGradient>
	<path id="path2636" class="st3" d="M246.4,205.9c0,4.4-3.6,8-8,8H-6c-4.4,0-8-3.6-8-8V10.6c0-4.4,3.6-8,8-8h244.5c4.4,0,8,3.6,8,8
		V205.9z"/>
</g>
<g id="Layer_8" transform="translate(50,44.117647)">
	<path id="path2639" class="st4" d="M242.6,108c0,43.8-2.9,75.8-2.9,75.8c-2,14.9-9.5,20.5-35.2,22.6c-41.2,3.3-92.3,2.3-92.3,2.3
		s-45.2,1.1-86.4-2.2c-25.7-2.1-33.2-7.6-35.2-22.6c0,0-1.6-31.4-1.3-75.4c0.2-44,3.3-75.9,3.3-75.9c2-14.9,9.5-20.5,35.2-22.6
		c41.2-3.3,86.4-2.2,86.4-2.2s51.1-1,92.3,2.3c25.7,2.1,33.2,7.6,35.2,22.6C241.7,32.6,242.6,64.2,242.6,108z"/>
</g>
<g id="Layer_8_copy" transform="translate(50,44.117647)">
	
		<linearGradient id="path2698_1_" gradientUnits="userSpaceOnUse" x1="47.8595" y1="543.9359" x2="47.8595" y2="403.6024" gradientTransform="matrix(1.3285 0 0 1.3285 52.378 -521.1581)">
		<stop  offset="0" style="stop-color:#E7EDF3"/>
		<stop  offset="1" style="stop-color:#FFFFFF"/>
	</linearGradient>
	<path id="path2698" class="st5" d="M239.1,108c0,42.6-2.8,73.7-2.8,73.7c-1.9,14.5-9.2,19.9-34.2,22c-40,3.2-89.8,2.3-89.8,2.3
		s-43.9,1.1-83.9-2.2c-25-2-32.3-7.4-34.2-22c0,0-1.5-30.6-1.3-73.3c0.2-42.8,3.2-73.8,3.2-73.8c1.9-14.5,9.2-19.9,34.2-22
		c40-3.2,83.9-2.2,83.9-2.2s49.7-1,89.8,2.3c25,2,32.3,7.4,34.2,22C238.2,34.8,239.1,65.4,239.1,108z"/>
</g>
<linearGradient id="SVGID_1_" gradientUnits="userSpaceOnUse" x1="308.0883" y1="87.7227" x2="323.3563" y2="87.7227" gradientTransform="matrix(6.123234e-17 1 -1 6.123234e-17 429.7684 -237.7134)">
	<stop  offset="0" style="stop-color:#95999D"/>
	<stop  offset="0.4951" style="stop-color:#CCCCCC"/>
	<stop  offset="1" style="stop-color:#95999D"/>
</linearGradient>
<path class="st6" d="M330.2,82.6V74c0-2.3,1.9-4.2,4.2-4.2h15.3c2.3,0,4.2,1.9,4.2,4.2v8.6c0,2.3-1.9,4.2-4.2,4.2h-15.3
	C332.1,86.8,330.2,84.9,330.2,82.6z"/>
<linearGradient id="SVGID_2_" gradientUnits="userSpaceOnUse" x1="338.4262" y1="87.5503" x2="353.6942" y2="87.5503" gradientTransform="matrix(6.123234e-17 1 -1 6.123234e-17 429.7684 -237.7134)">
	<stop  offset="0" style="stop-color:#95999D"/>
	<stop  offset="0.4951" style="stop-color:#CCCCCC"/>
	<stop  offset="1" style="stop-color:#95999D"/>
</linearGradient>
<path class="st7" d="M330.4,112.9v-8.6c0-2.3,1.9-4.2,4.2-4.2h15.3c2.3,0,4.2,1.9,4.2,4.2v8.6c0,2.3-1.9,4.2-4.2,4.2h-15.3
	C332.2,117.1,330.4,115.2,330.4,112.9z"/>
<g>
	<rect x="316.1" y="197.5" class="st4" width="52.3" height="1.3"/>
</g>
<g>
	<path class="st8" d="M365.5,256.5h-46.9c-2.3,0-4.1-1.8-4.1-4.1v-78.9c0-2.3,1.8-4.1,4.1-4.1h46.9c2.3,0,4.1,1.8,4.1,4.1v78.9
		C369.6,254.6,367.8,256.5,365.5,256.5z"/>
	<g>
		<rect x="315.9" y="171.9" class="st4" width="52.3" height="1.3"/>
	</g>
	<g>
		<rect x="315.9" y="174.2" class="st4" width="52.3" height="1.3"/>
	</g>
	<g>
		<rect x="315.9" y="176.9" class="st4" width="52.3" height="1.3"/>
	</g>
	<g>
		<rect x="315.9" y="179.4" class="st4" width="52.3" height="1.3"/>
	</g>
	<g>
		<rect x="315.9" y="182.2" class="st4" width="52.3" height="1.3"/>
	</g>
	<g>
		<rect x="315.9" y="184.9" class="st4" width="52.3" height="1.3"/>
	</g>
	<g>
		<rect x="315.9" y="187.7" class="st4" width="52.3" height="1.3"/>
	</g>
	<g>
		<rect x="315.9" y="190.2" class="st4" width="52.3" height="1.3"/>
	</g>
	<g>
		<rect x="316" y="192.8" class="st4" width="52.3" height="1.3"/>
	</g>
	<g>
		<rect x="316" y="195.3" class="st4" width="52.3" height="1.3"/>
	</g>
	<g>
		<rect x="316" y="197.6" class="st4" width="52.3" height="1.3"/>
	</g>
	<g>
		<rect x="316" y="200.1" class="st4" width="52.3" height="1.3"/>
	</g>
	<g>
		<rect x="316" y="202.3" class="st4" width="52.3" height="1.3"/>
	</g>
	<g>
		<rect x="316" y="204.8" class="st4" width="52.3" height="1.3"/>
	</g>
	<g>
		<rect x="316" y="207.2" class="st4" width="52.3" height="1.3"/>
	</g>
	<g>
		<rect x="316" y="209.7" class="st4" width="52.3" height="1.3"/>
	</g>
	<g>
		<rect x="316" y="212" class="st4" width="52.3" height="1.3"/>
	</g>
	<g>
		<rect x="316" y="214.4" class="st4" width="52.3" height="1.3"/>
	</g>
	<g>
		<rect x="316" y="227" class="st4" width="52.3" height="1.3"/>
	</g>
	<g>
		<rect x="316" y="224.6" class="st4" width="52.3" height="1.3"/>
	</g>
	<g>
		<rect x="316" y="222.1" class="st4" width="52.3" height="1.3"/>
	</g>
	<g>
		<rect x="316" y="219.5" class="st4" width="52.3" height="1.3"/>
	</g>
	<g>
		<rect x="316" y="216.9" class="st4" width="52.3" height="1.3"/>
	</g>
	<g>
		<rect x="316" y="229.6" class="st4" width="52.3" height="1.3"/>
	</g>
	<g>
		<rect x="316" y="232.2" class="st4" width="52.3" height="1.3"/>
	</g>
	<g>
		<rect x="316" y="234.8" class="st4" width="52.3" height="1.3"/>
	</g>
	<g>
		<rect x="316" y="237.6" class="st4" width="52.3" height="1.3"/>
	</g>
	<g>
		<rect x="316" y="240.2" class="st4" width="52.3" height="1.3"/>
	</g>
	<g>
		<rect x="316" y="242.9" class="st4" width="52.3" height="1.3"/>
	</g>
	<g>
		<rect x="315.9" y="245.5" class="st4" width="52.3" height="1.3"/>
	</g>
	<g>
		<rect x="315.9" y="248.2" class="st4" width="52.3" height="1.3"/>
	</g>
	<g>
		<rect x="315.9" y="250.6" class="st4" width="52.3" height="1.3"/>
	</g>
	<g>
		<rect x="316" y="253.1" class="st4" width="52.3" height="1.3"/>
	</g>
</g>
<linearGradient id="SVGID_3_" gradientUnits="userSpaceOnUse" x1="368.764" y1="87.5503" x2="384.032" y2="87.5503" gradientTransform="matrix(6.123234e-17 1 -1 6.123234e-17 429.7684 -237.7134)">
	<stop  offset="0" style="stop-color:#95999D"/>
	<stop  offset="0.4951" style="stop-color:#CCCCCC"/>
	<stop  offset="1" style="stop-color:#95999D"/>
</linearGradient>
<path class="st9" d="M330.4,143.2v-8.6c0-2.3,1.9-4.2,4.2-4.2h15.3c2.3,0,4.2,1.9,4.2,4.2v8.6c0,2.3-1.9,4.2-4.2,4.2h-15.3
	C332.2,147.4,330.4,145.6,330.4,143.2z"/>
</svg>
